<?xml version="1.0" encoding="UTF-8" standalone="no"?>
<!DOCTYPE svg PUBLIC "-//W3C//DTD SVG 1.1//EN"
 "http://www.w3.org/Graphics/SVG/1.1/DTD/svg11.dtd">
<!-- Generated by graphviz version 2.49.0 (20210828.1703)
 -->
<!-- Pages: 1 -->
<svg width="389pt" height="571pt"
 viewBox="0.00 0.00 389.12 570.81" xmlns="http://www.w3.org/2000/svg" xmlns:xlink="http://www.w3.org/1999/xlink">
<g id="graph0" class="graph" transform="scale(1 1) rotate(0) translate(4 566.81)">
<polygon fill="white" stroke="transparent" points="-4,4 -4,-566.81 385.12,-566.81 385.12,4 -4,4"/>
<g id="clust1" class="cluster">
<title>cluster48</title>
<path fill="none" stroke="black" d="M25,-440.86C25,-440.86 101,-440.86 101,-440.86 107,-440.86 113,-446.86 113,-452.86 113,-452.86 113,-542.81 113,-542.81 113,-548.81 107,-554.81 101,-554.81 101,-554.81 25,-554.81 25,-554.81 19,-554.81 13,-548.81 13,-542.81 13,-542.81 13,-452.86 13,-452.86 13,-446.86 19,-440.86 25,-440.86"/>
<text text-anchor="middle" x="98" y="-448.66" font-family="Times,serif" font-size="14.00">48</text>
</g>
<g id="clust2" class="cluster">
<title>cluster420</title>
<path fill="none" stroke="black" d="M20,-8C20,-8 217,-8 217,-8 223,-8 229,-14 229,-20 229,-20 229,-420.86 229,-420.86 229,-426.86 223,-432.86 217,-432.86 217,-432.86 20,-432.86 20,-432.86 14,-432.86 8,-426.86 8,-420.86 8,-420.86 8,-20 8,-20 8,-14 14,-8 20,-8"/>
<text text-anchor="middle" x="210.5" y="-15.8" font-family="Times,serif" font-size="14.00">420</text>
</g>
<!-- β -->
<g id="node1" class="node">
<title>β</title>
<ellipse fill="none" stroke="black" cx="63" cy="-509.34" rx="41.94" ry="37.45"/>
<text text-anchor="middle" x="63" y="-520.64" font-family="Times,serif" font-size="14.00">β</text>
<text text-anchor="middle" x="63" y="-505.64" font-family="Times,serif" font-size="14.00">~</text>
<text text-anchor="middle" x="63" y="-490.64" font-family="Times,serif" font-size="14.00">Normal</text>
</g>
<!-- seasonality -->
<g id="node4" class="node">
<title>seasonality</title>
<polygon fill="none" stroke="black" points="109.5,-424.86 16.5,-424.86 16.5,-371.86 109.5,-371.86 109.5,-424.86"/>
<text text-anchor="middle" x="63" y="-409.66" font-family="Times,serif" font-size="14.00">seasonality</text>
<text text-anchor="middle" x="63" y="-394.66" font-family="Times,serif" font-size="14.00">~</text>
<text text-anchor="middle" x="63" y="-379.66" font-family="Times,serif" font-size="14.00">Deterministic</text>
</g>
<!-- β&#45;&gt;seasonality -->
<g id="edge2" class="edge">
<title>β&#45;&gt;seasonality</title>
<path fill="none" stroke="black" d="M63,-471.75C63,-460.01 63,-447.02 63,-435.32"/>
<polygon fill="black" stroke="black" points="66.5,-435.02 63,-425.02 59.5,-435.02 66.5,-435.02"/>
</g>
<!-- α -->
<g id="node2" class="node">
<title>α</title>
<ellipse fill="none" stroke="black" cx="174" cy="-509.34" rx="41.94" ry="37.45"/>
<text text-anchor="middle" x="174" y="-520.64" font-family="Times,serif" font-size="14.00">α</text>
<text text-anchor="middle" x="174" y="-505.64" font-family="Times,serif" font-size="14.00">~</text>
<text text-anchor="middle" x="174" y="-490.64" font-family="Times,serif" font-size="14.00">Normal</text>
</g>
<!-- linear trend -->
<g id="node7" class="node">
<title>linear trend</title>
<polygon fill="none" stroke="black" points="220.5,-424.86 127.5,-424.86 127.5,-371.86 220.5,-371.86 220.5,-424.86"/>
<text text-anchor="middle" x="174" y="-409.66" font-family="Times,serif" font-size="14.00">linear trend</text>
<text text-anchor="middle" x="174" y="-394.66" font-family="Times,serif" font-size="14.00">~</text>
<text text-anchor="middle" x="174" y="-379.66" font-family="Times,serif" font-size="14.00">Deterministic</text>
</g>
<!-- α&#45;&gt;linear trend -->
<g id="edge1" class="edge">
<title>α&#45;&gt;linear trend</title>
<path fill="none" stroke="black" d="M174,-471.75C174,-460.01 174,-447.02 174,-435.32"/>
<polygon fill="black" stroke="black" points="177.5,-435.02 174,-425.02 170.5,-435.02 177.5,-435.02"/>
</g>
<!-- τ -->
<g id="node3" class="node">
<title>τ</title>
<ellipse fill="none" stroke="black" cx="309" cy="-298.38" rx="72.25" ry="37.45"/>
<text text-anchor="middle" x="309" y="-309.68" font-family="Times,serif" font-size="14.00">τ</text>
<text text-anchor="middle" x="309" y="-294.68" font-family="Times,serif" font-size="14.00">~</text>
<text text-anchor="middle" x="309" y="-279.68" font-family="Times,serif" font-size="14.00">InverseGamma</text>
</g>
<!-- λ -->
<g id="node5" class="node">
<title>λ</title>
<ellipse fill="none" stroke="black" cx="165" cy="-187.43" rx="55.72" ry="37.45"/>
<text text-anchor="middle" x="165" y="-198.73" font-family="Times,serif" font-size="14.00">λ</text>
<text text-anchor="middle" x="165" y="-183.73" font-family="Times,serif" font-size="14.00">~</text>
<text text-anchor="middle" x="165" y="-168.73" font-family="Times,serif" font-size="14.00">Lognormal</text>
</g>
<!-- τ&#45;&gt;λ -->
<g id="edge6" class="edge">
<title>τ&#45;&gt;λ</title>
<path fill="none" stroke="black" d="M268.89,-267.03C250.47,-253.1 228.58,-236.53 209.64,-222.21"/>
<polygon fill="black" stroke="black" points="211.54,-219.25 201.45,-216.01 207.31,-224.83 211.54,-219.25"/>
</g>
<!-- Λ -->
<g id="node6" class="node">
<title>Λ</title>
<polygon fill="none" stroke="black" points="211.5,-324.88 118.5,-324.88 118.5,-271.88 211.5,-271.88 211.5,-324.88"/>
<text text-anchor="middle" x="165" y="-309.68" font-family="Times,serif" font-size="14.00">Λ</text>
<text text-anchor="middle" x="165" y="-294.68" font-family="Times,serif" font-size="14.00">~</text>
<text text-anchor="middle" x="165" y="-279.68" font-family="Times,serif" font-size="14.00">Deterministic</text>
</g>
<!-- seasonality&#45;&gt;Λ -->
<g id="edge4" class="edge">
<title>seasonality&#45;&gt;Λ</title>
<path fill="none" stroke="black" d="M89.8,-371.62C102.45,-359.47 117.68,-344.83 131.13,-331.92"/>
<polygon fill="black" stroke="black" points="133.59,-334.41 138.38,-324.95 128.74,-329.36 133.59,-334.41"/>
</g>
<!-- N -->
<g id="node8" class="node">
<title>N</title>
<ellipse fill="lightgrey" stroke="black" cx="165" cy="-76.48" rx="42.35" ry="37.45"/>
<text text-anchor="middle" x="165" y="-87.78" font-family="Times,serif" font-size="14.00">N</text>
<text text-anchor="middle" x="165" y="-72.78" font-family="Times,serif" font-size="14.00">~</text>
<text text-anchor="middle" x="165" y="-57.78" font-family="Times,serif" font-size="14.00">Poisson</text>
</g>
<!-- λ&#45;&gt;N -->
<g id="edge7" class="edge">
<title>λ&#45;&gt;N</title>
<path fill="none" stroke="black" d="M165,-149.85C165,-141.67 165,-132.89 165,-124.37"/>
<polygon fill="black" stroke="black" points="168.5,-124.15 165,-114.15 161.5,-124.15 168.5,-124.15"/>
</g>
<!-- Λ&#45;&gt;λ -->
<g id="edge5" class="edge">
<title>Λ&#45;&gt;λ</title>
<path fill="none" stroke="black" d="M165,-271.84C165,-260.93 165,-247.84 165,-235.3"/>
<polygon fill="black" stroke="black" points="168.5,-234.95 165,-224.95 161.5,-234.95 168.5,-234.95"/>
</g>
<!-- linear trend&#45;&gt;Λ -->
<g id="edge3" class="edge">
<title>linear trend&#45;&gt;Λ</title>
<path fill="none" stroke="black" d="M171.64,-371.62C170.61,-360.48 169.4,-347.25 168.29,-335.18"/>
<polygon fill="black" stroke="black" points="171.75,-334.59 167.35,-324.95 164.78,-335.23 171.75,-334.59"/>
</g>
</g>
</svg>
