<?xml version="1.0" encoding="UTF-8" standalone="no"?>
<!DOCTYPE svg PUBLIC "-//W3C//DTD SVG 1.1//EN"
 "http://www.w3.org/Graphics/SVG/1.1/DTD/svg11.dtd">
<!-- Generated by graphviz version 2.49.0 (0)
 -->
<!-- Pages: 1 -->
<svg width="152pt" height="460pt"
 viewBox="0.00 0.00 152.00 459.86" xmlns="http://www.w3.org/2000/svg" xmlns:xlink="http://www.w3.org/1999/xlink">
<g id="graph0" class="graph" transform="scale(1 1) rotate(0) translate(4 455.86)">
<polygon fill="white" stroke="transparent" points="-4,4 -4,-455.86 148,-455.86 148,4 -4,4"/>
<g id="clust1" class="cluster">
<title>cluster24</title>
<path fill="none" stroke="black" d="M34,-329.91C34,-329.91 110,-329.91 110,-329.91 116,-329.91 122,-335.91 122,-341.91 122,-341.91 122,-431.86 122,-431.86 122,-437.86 116,-443.86 110,-443.86 110,-443.86 34,-443.86 34,-443.86 28,-443.86 22,-437.86 22,-431.86 22,-431.86 22,-341.91 22,-341.91 22,-335.91 28,-329.91 34,-329.91"/>
<text text-anchor="middle" x="107" y="-337.71" font-family="Times,serif" font-size="14.00">24</text>
</g>
<g id="clust2" class="cluster">
<title>cluster120</title>
<path fill="none" stroke="black" d="M20,-8C20,-8 124,-8 124,-8 130,-8 136,-14 136,-20 136,-20 136,-309.91 136,-309.91 136,-315.91 130,-321.91 124,-321.91 124,-321.91 20,-321.91 20,-321.91 14,-321.91 8,-315.91 8,-309.91 8,-309.91 8,-20 8,-20 8,-14 14,-8 20,-8"/>
<text text-anchor="middle" x="117.5" y="-15.8" font-family="Times,serif" font-size="14.00">120</text>
</g>
<!-- β -->
<g id="node1" class="node">
<title>β</title>
<ellipse fill="none" stroke="black" cx="72" cy="-398.38" rx="41.94" ry="37.45"/>
<text text-anchor="middle" x="72" y="-409.68" font-family="Times,serif" font-size="14.00">β</text>
<text text-anchor="middle" x="72" y="-394.68" font-family="Times,serif" font-size="14.00">~</text>
<text text-anchor="middle" x="72" y="-379.68" font-family="Times,serif" font-size="14.00">Normal</text>
</g>
<!-- Λ -->
<g id="node4" class="node">
<title>Λ</title>
<polygon fill="none" stroke="black" points="118.5,-313.91 25.5,-313.91 25.5,-260.91 118.5,-260.91 118.5,-313.91"/>
<text text-anchor="middle" x="72" y="-298.71" font-family="Times,serif" font-size="14.00">Λ</text>
<text text-anchor="middle" x="72" y="-283.71" font-family="Times,serif" font-size="14.00">~</text>
<text text-anchor="middle" x="72" y="-268.71" font-family="Times,serif" font-size="14.00">Deterministic</text>
</g>
<!-- β&#45;&gt;Λ -->
<g id="edge1" class="edge">
<title>β&#45;&gt;Λ</title>
<path fill="none" stroke="black" d="M72,-360.79C72,-349.05 72,-336.06 72,-324.37"/>
<polygon fill="black" stroke="black" points="75.5,-324.06 72,-314.06 68.5,-324.06 75.5,-324.06"/>
</g>
<!-- N -->
<g id="node2" class="node">
<title>N</title>
<ellipse fill="lightgrey" stroke="black" cx="72" cy="-76.48" rx="42.35" ry="37.45"/>
<text text-anchor="middle" x="72" y="-87.78" font-family="Times,serif" font-size="14.00">N</text>
<text text-anchor="middle" x="72" y="-72.78" font-family="Times,serif" font-size="14.00">~</text>
<text text-anchor="middle" x="72" y="-57.78" font-family="Times,serif" font-size="14.00">Poisson</text>
</g>
<!-- λ -->
<g id="node3" class="node">
<title>λ</title>
<ellipse fill="none" stroke="black" cx="72" cy="-187.43" rx="55.72" ry="37.45"/>
<text text-anchor="middle" x="72" y="-198.73" font-family="Times,serif" font-size="14.00">λ</text>
<text text-anchor="middle" x="72" y="-183.73" font-family="Times,serif" font-size="14.00">~</text>
<text text-anchor="middle" x="72" y="-168.73" font-family="Times,serif" font-size="14.00">Lognormal</text>
</g>
<!-- λ&#45;&gt;N -->
<g id="edge3" class="edge">
<title>λ&#45;&gt;N</title>
<path fill="none" stroke="black" d="M72,-149.85C72,-141.67 72,-132.89 72,-124.37"/>
<polygon fill="black" stroke="black" points="75.5,-124.15 72,-114.15 68.5,-124.15 75.5,-124.15"/>
</g>
<!-- Λ&#45;&gt;λ -->
<g id="edge2" class="edge">
<title>Λ&#45;&gt;λ</title>
<path fill="none" stroke="black" d="M72,-260.66C72,-252.84 72,-243.99 72,-235.23"/>
<polygon fill="black" stroke="black" points="75.5,-235.05 72,-225.05 68.5,-235.05 75.5,-235.05"/>
</g>
</g>
</svg>
