<?xml version="1.0" encoding="UTF-8" standalone="no"?>
<!DOCTYPE svg PUBLIC "-//W3C//DTD SVG 1.1//EN"
 "http://www.w3.org/Graphics/SVG/1.1/DTD/svg11.dtd">
<!-- Generated by graphviz version 2.49.0 (0)
 -->
<!-- Pages: 1 -->
<svg width="228pt" height="344pt"
 viewBox="0.00 0.00 228.12 343.86" xmlns="http://www.w3.org/2000/svg" xmlns:xlink="http://www.w3.org/1999/xlink">
<g id="graph0" class="graph" transform="scale(1 1) rotate(0) translate(4 339.86)">
<polygon fill="white" stroke="transparent" points="-4,4 -4,-339.86 224.12,-339.86 224.12,4 -4,4"/>
<g id="clust1" class="cluster">
<title>cluster444</title>
<path fill="none" stroke="black" d="M62.72,-8C62.72,-8 138.72,-8 138.72,-8 144.72,-8 150.72,-14 150.72,-20 150.72,-20 150.72,-109.95 150.72,-109.95 150.72,-115.95 144.72,-121.95 138.72,-121.95 138.72,-121.95 62.72,-121.95 62.72,-121.95 56.72,-121.95 50.72,-115.95 50.72,-109.95 50.72,-109.95 50.72,-20 50.72,-20 50.72,-14 56.72,-8 62.72,-8"/>
<text text-anchor="middle" x="132.22" y="-15.8" font-family="Times,serif" font-size="14.00">444</text>
</g>
<!-- Λ -->
<g id="node1" class="node">
<title>Λ</title>
<ellipse fill="none" stroke="black" cx="41.72" cy="-298.38" rx="41.94" ry="37.45"/>
<text text-anchor="middle" x="41.72" y="-309.68" font-family="Times,serif" font-size="14.00">Λ</text>
<text text-anchor="middle" x="41.72" y="-294.68" font-family="Times,serif" font-size="14.00">~</text>
<text text-anchor="middle" x="41.72" y="-279.68" font-family="Times,serif" font-size="14.00">Normal</text>
</g>
<!-- λ -->
<g id="node2" class="node">
<title>λ</title>
<ellipse fill="none" stroke="black" cx="100.72" cy="-187.43" rx="55.72" ry="37.45"/>
<text text-anchor="middle" x="100.72" y="-198.73" font-family="Times,serif" font-size="14.00">λ</text>
<text text-anchor="middle" x="100.72" y="-183.73" font-family="Times,serif" font-size="14.00">~</text>
<text text-anchor="middle" x="100.72" y="-168.73" font-family="Times,serif" font-size="14.00">Lognormal</text>
</g>
<!-- Λ&#45;&gt;λ -->
<g id="edge1" class="edge">
<title>Λ&#45;&gt;λ</title>
<path fill="none" stroke="black" d="M59.58,-264.4C65.15,-254.12 71.37,-242.63 77.26,-231.76"/>
<polygon fill="black" stroke="black" points="80.42,-233.27 82.1,-222.81 74.26,-229.94 80.42,-233.27"/>
</g>
<!-- N -->
<g id="node4" class="node">
<title>N</title>
<ellipse fill="lightgrey" stroke="black" cx="100.72" cy="-76.48" rx="42.35" ry="37.45"/>
<text text-anchor="middle" x="100.72" y="-87.78" font-family="Times,serif" font-size="14.00">N</text>
<text text-anchor="middle" x="100.72" y="-72.78" font-family="Times,serif" font-size="14.00">~</text>
<text text-anchor="middle" x="100.72" y="-57.78" font-family="Times,serif" font-size="14.00">Poisson</text>
</g>
<!-- λ&#45;&gt;N -->
<g id="edge3" class="edge">
<title>λ&#45;&gt;N</title>
<path fill="none" stroke="black" d="M100.72,-149.85C100.72,-141.67 100.72,-132.89 100.72,-124.37"/>
<polygon fill="black" stroke="black" points="104.22,-124.15 100.72,-114.15 97.22,-124.15 104.22,-124.15"/>
</g>
<!-- σ -->
<g id="node3" class="node">
<title>σ</title>
<ellipse fill="none" stroke="black" cx="160.72" cy="-298.38" rx="59.29" ry="37.45"/>
<text text-anchor="middle" x="160.72" y="-309.68" font-family="Times,serif" font-size="14.00">σ</text>
<text text-anchor="middle" x="160.72" y="-294.68" font-family="Times,serif" font-size="14.00">~</text>
<text text-anchor="middle" x="160.72" y="-279.68" font-family="Times,serif" font-size="14.00">HalfCauchy</text>
</g>
<!-- σ&#45;&gt;λ -->
<g id="edge2" class="edge">
<title>σ&#45;&gt;λ</title>
<path fill="none" stroke="black" d="M141.57,-262.61C136.16,-252.78 130.2,-241.97 124.55,-231.71"/>
<polygon fill="black" stroke="black" points="127.58,-229.94 119.69,-222.87 121.44,-233.32 127.58,-229.94"/>
</g>
</g>
</svg>
