<?xml version="1.0" encoding="UTF-8" standalone="no"?>
<!DOCTYPE svg PUBLIC "-//W3C//DTD SVG 1.1//EN"
 "http://www.w3.org/Graphics/SVG/1.1/DTD/svg11.dtd">
<!-- Generated by graphviz version 2.49.0 (0)
 -->
<!-- Pages: 1 -->
<svg width="228pt" height="344pt"
 viewBox="0.00 0.00 228.12 343.86" xmlns="http://www.w3.org/2000/svg" xmlns:xlink="http://www.w3.org/1999/xlink">
<g id="graph0" class="graph" transform="scale(1 1) rotate(0) translate(4 339.86)">
<polygon fill="white" stroke="transparent" points="-4,4 -4,-339.86 224.12,-339.86 224.12,4 -4,4"/>
<g id="clust1" class="cluster">
<title>cluster444</title>
<path fill="none" stroke="black" d="M80.4,-8C80.4,-8 156.4,-8 156.4,-8 162.4,-8 168.4,-14 168.4,-20 168.4,-20 168.4,-109.95 168.4,-109.95 168.4,-115.95 162.4,-121.95 156.4,-121.95 156.4,-121.95 80.4,-121.95 80.4,-121.95 74.4,-121.95 68.4,-115.95 68.4,-109.95 68.4,-109.95 68.4,-20 68.4,-20 68.4,-14 74.4,-8 80.4,-8"/>
<text text-anchor="middle" x="149.9" y="-15.8" font-family="Times,serif" font-size="14.00">444</text>
</g>
<!-- λ -->
<g id="node1" class="node">
<title>λ</title>
<ellipse fill="none" stroke="black" cx="118.4" cy="-187.43" rx="55.72" ry="37.45"/>
<text text-anchor="middle" x="118.4" y="-198.73" font-family="Times,serif" font-size="14.00">λ</text>
<text text-anchor="middle" x="118.4" y="-183.73" font-family="Times,serif" font-size="14.00">~</text>
<text text-anchor="middle" x="118.4" y="-168.73" font-family="Times,serif" font-size="14.00">Lognormal</text>
</g>
<!-- N -->
<g id="node4" class="node">
<title>N</title>
<ellipse fill="lightgrey" stroke="black" cx="118.4" cy="-76.48" rx="42.35" ry="37.45"/>
<text text-anchor="middle" x="118.4" y="-87.78" font-family="Times,serif" font-size="14.00">N</text>
<text text-anchor="middle" x="118.4" y="-72.78" font-family="Times,serif" font-size="14.00">~</text>
<text text-anchor="middle" x="118.4" y="-57.78" font-family="Times,serif" font-size="14.00">Poisson</text>
</g>
<!-- λ&#45;&gt;N -->
<g id="edge3" class="edge">
<title>λ&#45;&gt;N</title>
<path fill="none" stroke="black" d="M118.4,-149.85C118.4,-141.67 118.4,-132.89 118.4,-124.37"/>
<polygon fill="black" stroke="black" points="121.9,-124.15 118.4,-114.15 114.9,-124.15 121.9,-124.15"/>
</g>
<!-- σ -->
<g id="node2" class="node">
<title>σ</title>
<ellipse fill="none" stroke="black" cx="59.4" cy="-298.38" rx="59.29" ry="37.45"/>
<text text-anchor="middle" x="59.4" y="-309.68" font-family="Times,serif" font-size="14.00">σ</text>
<text text-anchor="middle" x="59.4" y="-294.68" font-family="Times,serif" font-size="14.00">~</text>
<text text-anchor="middle" x="59.4" y="-279.68" font-family="Times,serif" font-size="14.00">HalfCauchy</text>
</g>
<!-- σ&#45;&gt;λ -->
<g id="edge1" class="edge">
<title>σ&#45;&gt;λ</title>
<path fill="none" stroke="black" d="M78.23,-262.61C83.55,-252.78 89.4,-241.97 94.96,-231.71"/>
<polygon fill="black" stroke="black" points="98.06,-233.33 99.75,-222.87 91.91,-230 98.06,-233.33"/>
</g>
<!-- Λ -->
<g id="node3" class="node">
<title>Λ</title>
<ellipse fill="none" stroke="black" cx="178.4" cy="-298.38" rx="41.94" ry="37.45"/>
<text text-anchor="middle" x="178.4" y="-309.68" font-family="Times,serif" font-size="14.00">Λ</text>
<text text-anchor="middle" x="178.4" y="-294.68" font-family="Times,serif" font-size="14.00">~</text>
<text text-anchor="middle" x="178.4" y="-279.68" font-family="Times,serif" font-size="14.00">Normal</text>
</g>
<!-- Λ&#45;&gt;λ -->
<g id="edge2" class="edge">
<title>Λ&#45;&gt;λ</title>
<path fill="none" stroke="black" d="M160.23,-264.4C154.57,-254.12 148.25,-242.63 142.26,-231.76"/>
<polygon fill="black" stroke="black" points="145.22,-229.88 137.33,-222.81 139.09,-233.26 145.22,-229.88"/>
</g>
</g>
</svg>
